<svg xmlns="http://www.w3.org/2000/svg" width="20" height="20" viewBox="0 0 45 30">
  <g id="iconCaminhao" transform="translate(-756 -257)">
    <g id="Uni達o_1" data-name="Uni達o 1" transform="translate(756 257)" fill="none">
      <path d="M7,25H0V0H31V25H17A5,5,0,0,1,7,25Z" stroke="none"/>
      <path d="M 11.99970054626465 27.99970054626465 C 13.65413093566895 27.99970054626465 15.00010108947754 26.65413093566895 15.00010108947754 25.00020027160645 L 15.00010108947754 23.00020027160645 L 17.00010108947754 23.00020027160645 L 28.99960136413574 23.00020027160645 L 28.99960136413574 2.000000238418579 L 2.000000715255737 2.000000238418579 L 2.000000715255737 23.00020027160645 L 7.000200748443604 23.00020027160645 L 9.000200271606445 23.00020027160645 L 9.000200271606445 25.00020027160645 C 9.000200271606445 26.65413093566895 10.34577083587646 27.99970054626465 11.99970054626465 27.99970054626465 M 11.99970054626465 29.99970054626465 C 9.238500595092773 29.99970054626465 7.000200748443604 27.76140022277832 7.000200748443604 25.00020027160645 L 6.820678777330613e-07 25.00020027160645 L 6.820678777330613e-07 2.731323149873788e-07 L 30.99960136413574 2.731323149873788e-07 L 30.99960136413574 25.00020027160645 L 17.00010108947754 25.00020027160645 C 17.00010108947754 27.76140022277832 14.76180076599121 29.99970054626465 11.99970054626465 29.99970054626465 Z" stroke="none" fill="#616060"/>
    </g>
    <g id="Elipse_1" data-name="Elipse 1" transform="translate(763 277)" fill="none" stroke="#616060" stroke-width="2">
      <circle cx="5" cy="5" r="5" stroke="none"/>
      <circle cx="5" cy="5" r="4" fill="none"/>
    </g>
    <g id="Elipse_2" data-name="Elipse 2" transform="translate(788 277)" fill="none" stroke="#616060" stroke-width="2">
      <circle cx="5" cy="5" r="5" stroke="none"/>
      <circle cx="5" cy="5" r="4" fill="none"/>
    </g>
    <g id="Uni達o_2" data-name="Uni達o 2" transform="translate(785 263)" fill="none">
      <path d="M3,19H0V0H9.257L16,10.224V19H13A5,5,0,1,1,3,19Z" stroke="none"/>
      <path d="M 8.000100135803223 22.00030136108398 C 9.654029846191406 22.00030136108398 10.99960041046143 20.65433120727539 10.99960041046143 18.99990081787109 L 10.99960041046143 16.99990081787109 L 12.99960041046143 16.99990081787109 L 14.00020027160645 16.99990081787109 L 14.00020027160645 10.82413005828857 L 8.180624008178711 2.000000715255737 L 2.000000238418579 2.000000715255737 L 2.000000238418579 16.99990081787109 L 2.99970006942749 16.99990081787109 L 4.99970006942749 16.99990081787109 L 4.99970006942749 18.99990081787109 C 4.99970006942749 20.65433120727539 6.345670223236084 22.00030136108398 8.000100135803223 22.00030136108398 M 8.000100135803223 24.00030136108398 C 5.238900184631348 24.00030136108398 2.99970006942749 21.76110076904297 2.99970006942749 18.99990081787109 L 1.358032193365943e-07 18.99990081787109 L 1.358032193365943e-07 6.805419729971618e-07 L 9.257400512695313 6.805419729971618e-07 L 16.00020027160645 10.22400093078613 L 16.00020027160645 18.99990081787109 L 12.99960041046143 18.99990081787109 C 12.99960041046143 21.76110076904297 10.7613000869751 24.00030136108398 8.000100135803223 24.00030136108398 Z" stroke="none" fill="#616060"/>
    </g>
    <line id="Linha_1" data-name="Linha 1" x1="13" transform="translate(786.5 273.5)" fill="none" stroke="#616060" stroke-width="1"/>
  </g>
</svg>
