<svg xmlns="http://www.w3.org/2000/svg" width="20" height="20" viewBox="0 0 47.838 43.851">
  <g id="iconCoração" transform="translate(0 -21.333)">
    <g id="Grupo_3" data-name="Grupo 3" transform="translate(0 21.333)">
      <path id="Caminho_4" data-name="Caminho 4" d="M35.38,21.333c-5.306,0-9.689,4.929-11.461,7.255-1.772-2.326-6.155-7.255-11.461-7.255C5.589,21.333,0,27.649,0,35.41A14.7,14.7,0,0,0,4.623,46.292a.985.985,0,0,0,.157.2l18.436,18.4a1,1,0,0,0,1.408,0L43.672,45.85l.2-.191c.156-.147.31-.3.482-.487a.969.969,0,0,0,.177-.238,15.046,15.046,0,0,0,3.31-9.525C47.838,27.649,42.249,21.333,35.38,21.333Z" transform="translate(0 -21.333)" fill="#b3b3b3"/>
    </g>
  </g>
</svg>
