<svg id="iconGoogPlus" xmlns="http://www.w3.org/2000/svg" width="25" height="25" viewBox="0 0 28.023 18.062">
  <path id="Caminho_10" data-name="Caminho 10" d="M9.085,3.284a5.786,5.786,0,0,1,4.6,2.315l2.331-2.348a9.025,9.025,0,1,0,1.757,8.243,8.754,8.754,0,0,0,.345-2.463V8.21H9.906v3.283h4.351a5.713,5.713,0,0,1-5.172,3.285,5.8,5.8,0,0,1-5.8-5.747,5.8,5.8,0,0,1,5.8-5.747Zm0,0" transform="translate(0 0)" fill="#616060"/>
  <path id="Caminho_11" data-name="Caminho 11" d="M366.747,90h-3.284v2.463H361v3.284h2.463V98.21h3.284V95.747h2.518V92.463h-2.518Zm0,0" transform="translate(-341.242 -85.074)" fill="#616060"/>
</svg>
