<svg xmlns="http://www.w3.org/2000/svg" width="20" height="20" viewBox="0 0 28.023 22.935">
  <path id="iconTwitter" d="M10.455,22.936a24.045,24.045,0,0,1-3.714-.295,17.43,17.43,0,0,1-5.08-1.849L0,19.884l1.8-.591c1.965-.646,3.16-1.047,4.64-1.675a6.173,6.173,0,0,1-3.173-3.677l-.418-1.27.343.052a6.236,6.236,0,0,1-.781-.963,5.912,5.912,0,0,1-1-3.515l.079-1.108.663.257a6.2,6.2,0,0,1-.6-1.685A6.41,6.41,0,0,1,2.23,1.4L2.807.334l.773.928A14.224,14.224,0,0,0,12.8,6.451a5.512,5.512,0,0,1,.335-2.928A5.483,5.483,0,0,1,15.359.967,6.7,6.7,0,0,1,19.244.013a6.206,6.206,0,0,1,3.815,1.573,12.806,12.806,0,0,0,1.4-.466c.306-.115.653-.246,1.088-.4l1.6-.552L26.1,3.155c.069-.006.14-.011.214-.014l1.71-.077-1.01,1.381c-.058.079-.073.1-.093.133-.081.123-.183.275-1.57,2.127a2.612,2.612,0,0,0-.488,1.7,16.089,16.089,0,0,1-.878,6.471A11.452,11.452,0,0,1,20.91,19.43a13.577,13.577,0,0,1-6.436,3.111,19.812,19.812,0,0,1-4.019.394Zm0,0" transform="translate(0 0)" fill="#616060"/>
</svg>
