<svg xmlns="http://www.w3.org/2000/svg" width="20" height="20" viewBox="0 0 48 63">
  <g id="iconSacola" transform="translate(-1086 -711)">
    <g id="Ret창ngulo_11" data-name="Ret창ngulo 11" transform="translate(1086 728)" fill="none" stroke="#707070" stroke-width="2">
      <rect width="48" height="46" stroke="none"/>
      <rect x="1" y="1" width="46" height="44" fill="none"/>
    </g>
    <g id="Uni찾o_5" data-name="Uni찾o 5" transform="translate(1097 711)" fill="none">
      <path d="M0,19V9.5C0,4.254,6.044,0,13.5,0S27,4.254,27,9.5V19Z" stroke="none"/>
      <path d="M 25.00010108947754 17.00020027160645 L 25.00010108947754 9.500100135803223 C 25.00010108947754 7.632160186767578 23.89725112915039 5.827390193939209 21.89469146728516 4.418260097503662 C 19.67854118347168 2.858820199966431 16.6970100402832 2.000000238418579 13.49934101104736 2.000000238418579 C 10.30180072784424 2.000000238418579 7.320560455322266 2.858790159225464 5.10481071472168 4.418179988861084 C 3.102640628814697 5.827250003814697 2.000000476837158 7.632040023803711 2.000000476837158 9.500100135803223 L 2.000000476837158 17.00020027160645 L 25.00010108947754 17.00020027160645 M 27.00010108947754 19.00020027160645 L 5.447387820822769e-07 19.00020027160645 L 5.447387820822769e-07 9.500100135803223 C 5.447387820822769e-07 4.253620147705078 6.043540477752686 1.358032193365943e-07 13.49934101104736 1.358032193365943e-07 C 20.95512962341309 1.358032193365943e-07 27.00010108947754 4.253620147705078 27.00010108947754 9.500100135803223 L 27.00010108947754 19.00020027160645 Z" stroke="none" fill="#707070"/>
    </g>
    <line id="Linha_5" data-name="Linha 5" y2="14" transform="translate(1098 729.5)" fill="none" stroke="#707070" stroke-width="2"/>
    <line id="Linha_6" data-name="Linha 6" y2="14" transform="translate(1123 729.5)" fill="none" stroke="#707070" stroke-width="2"/>
  </g>
</svg>
