<svg xmlns="http://www.w3.org/2000/svg" width="20" height="20" viewBox="0 0 32.023 31.228">
  <g id="iconDesconto" transform="translate(0 -6.319)">
    <path id="Caminho_5" data-name="Caminho 5" d="M32.023,21.933l-1.814-3.241.232-3.709L27.4,12.855,26,9.415l-3.666-.6L19.574,6.319,16.011,7.373,12.449,6.319,9.693,8.812l-3.666.6-1.4,3.44L1.582,14.983l.232,3.709L0,21.933l1.814,3.241-.232,3.709,3.045,2.128,1.4,3.44,3.666.6,2.755,2.493,3.563-1.054,3.563,1.054,2.755-2.493,3.666-.6,1.4-3.44,3.045-2.128-.232-3.709Zm-3.532,6.01-2.634,1.841-1.211,2.977-3.171.521-2.382,2.155-3.082-.912-3.082.912-2.382-2.155-3.171-.521L6.166,29.783,3.532,27.943l.2-3.206-1.57-2.8,1.569-2.8-.2-3.206,2.634-1.841,1.211-2.977,3.171-.521,2.382-2.155,3.082.912,3.082-.912,2.382,2.155,3.171.521,1.211,2.977,2.634,1.841-.2,3.206,1.569,2.8-1.569,2.8Z" transform="translate(0 0)" fill="#616060"/>
    <path id="Caminho_6" data-name="Caminho 6" d="M0,0H13.536V1.887H0Z" transform="translate(10.556 26.051) rotate(-45)" fill="#616060"/>
    <path id="Caminho_7" data-name="Caminho 7" d="M270.1,267.261a2.836,2.836,0,1,0,2.836,2.836A2.839,2.839,0,0,0,270.1,267.261Zm0,3.784a.949.949,0,1,1,.949-.949A.95.95,0,0,1,270.1,271.045Z" transform="translate(-250.449 -244.529)" fill="#616060"/>
    <path id="Caminho_8" data-name="Caminho 8" d="M157.346,154.511a2.836,2.836,0,1,0-2.836,2.836A2.839,2.839,0,0,0,157.346,154.511Zm-3.784,0a.949.949,0,1,1,.949.949A.95.95,0,0,1,153.562,154.511Z" transform="translate(-142.135 -136.213)" fill="#616060"/>
  </g>
</svg>
