<svg id="iconInstagram" xmlns="http://www.w3.org/2000/svg" width="20" height="20" viewBox="0 0 28.023 28.023">
  <path id="Caminho_12" data-name="Caminho 12" d="M20.437,0H7.585A7.594,7.594,0,0,0,0,7.586V20.438a7.594,7.594,0,0,0,7.586,7.585H20.437a7.594,7.594,0,0,0,7.585-7.585V7.586A7.594,7.594,0,0,0,20.436,0Zm5.943,20.438a5.949,5.949,0,0,1-5.943,5.943H7.585a5.949,5.949,0,0,1-5.943-5.943V7.586A5.949,5.949,0,0,1,7.585,1.643H20.437a5.949,5.949,0,0,1,5.943,5.943Zm0,0" transform="translate(0.001 0)" fill="#616060"/>
  <path id="Caminho_13" data-name="Caminho 13" d="M123.666,116a7.662,7.662,0,1,0,7.662,7.662A7.671,7.671,0,0,0,123.666,116Zm0,13.682a6.019,6.019,0,1,1,6.019-6.019A6.026,6.026,0,0,1,123.666,129.686Zm0,0" transform="translate(-109.655 -109.655)" fill="#616060"/>
  <path id="Caminho_14" data-name="Caminho 14" d="M360.241,66.285a2.264,2.264,0,1,0,2.264,2.264A2.267,2.267,0,0,0,360.241,66.285Zm0,2.885a.621.621,0,1,1,.622-.621A.622.622,0,0,1,360.241,69.171Zm0,0" transform="translate(-338.384 -62.657)" fill="#616060"/>
</svg>
