<svg xmlns="http://www.w3.org/2000/svg" width="43.62" height="43.62" viewBox="0 0 43.62 43.62">
  <path id="iconTelefone" d="M22.468,16.909l-3.36,3.253a22.951,22.951,0,0,1-4.838-3.745A23.314,23.314,0,0,1,10.5,11.556l3.252-3.294L5.543,0,1.5,4.019A5.089,5.089,0,0,0,.506,9.836a44.662,44.662,0,0,0,8.577,11.92A44.661,44.661,0,0,0,21,30.333a5.041,5.041,0,0,0,2.206.507,5.108,5.108,0,0,0,3.611-1.5L30.847,25.3Zm2.648,10.732a2.68,2.68,0,0,1-3.061.526,42.225,42.225,0,0,1-11.269-8.114A42.227,42.227,0,0,1,2.672,8.784,2.679,2.679,0,0,1,3.2,5.725l2.335-2.32,4.833,4.862L7.595,11.074l.334.751a23.312,23.312,0,0,0,4.638,6.3,22.9,22.9,0,0,0,6.272,4.611l.741.325,2.86-2.769L27.446,25.3Z" transform="translate(21.808 0) rotate(45)" fill="#616060"/>
</svg>
