<svg xmlns="http://www.w3.org/2000/svg" width="20" height="20" viewBox="0 0 22 34.082">
  <g id="iconCadeado" transform="translate(-840 -253)">
    <g id="Caminho_3" data-name="Caminho 3" transform="translate(840 265)" fill="none">
      <path d="M0,0H22V17L10.969,22.082,0,17Z" stroke="none"/>
      <path d="M 2 2.000001907348633 L 2 15.72238159179688 L 10.97124004364014 19.87870979309082 L 20 15.71934127807617 L 20 2.000001907348633 L 2 2.000001907348633 M 0 1.9073486328125e-06 L 22 1.9073486328125e-06 L 22 17.00000381469727 L 10.96887016296387 22.08182334899902 L 0 17.00000381469727 L 0 1.9073486328125e-06 Z" stroke="none" fill="#616060"/>
    </g>
    <line id="Linha_4" data-name="Linha 4" y2="5" transform="translate(850.5 272.5)" fill="none" stroke="#616060" stroke-width="2"/>
    <g id="União_5" data-name="União 5" transform="translate(843 253)" fill="none">
      <path d="M0,14V7C0,3.134,3.581,0,8,0s8,3.134,8,7v7Z" stroke="none"/>
      <path d="M 14.00010013580322 12.00020027160645 L 14.00010013580322 7.000100612640381 C 14.00010013580322 4.243040561676025 11.30830097198486 2.000000715255737 7.999630451202393 2.000000715255737 C 4.691420555114746 2.000000715255737 2.000000476837158 4.243040561676025 2.000000476837158 7.000100612640381 L 2.000000476837158 12.00020027160645 L 14.00010013580322 12.00020027160645 M 16.00010108947754 14.00020027160645 L 5.447387820822769e-07 14.00020027160645 L 5.447387820822769e-07 7.000100612640381 C 5.447387820822769e-07 3.134260654449463 3.58137059211731 6.126404059614288e-07 7.999630451202393 6.126404059614288e-07 C 12.41789054870605 6.126404059614288e-07 16.00010108947754 3.134260654449463 16.00010108947754 7.000100612640381 L 16.00010108947754 14.00020027160645 Z" stroke="none" fill="#616060"/>
    </g>
  </g>
</svg>
