<svg xmlns="http://www.w3.org/2000/svg" width="20" height="20" viewBox="0 0 35.029 24.526">
  <path id="iconYoutube" d="M34.308-2.244A4.388,4.388,0,0,0,31.22-5.332c-2.741-.75-13.706-.75-13.706-.75s-10.964,0-13.705.722A4.477,4.477,0,0,0,.722-2.244,46.241,46.241,0,0,0,0,6.181a46.071,46.071,0,0,0,.721,8.425A4.389,4.389,0,0,0,3.81,17.694c2.77.75,13.706.75,13.706.75s10.964,0,13.705-.722a4.389,4.389,0,0,0,3.088-3.087,46.255,46.255,0,0,0,.721-8.425S35.058.5,34.308-2.244ZM14.024,11.432V.93l9.118,5.251Zm0,0" transform="translate(-0.001 6.082)" fill="#616060"/>
</svg>
