<svg xmlns="http://www.w3.org/2000/svg" width="20" height="20" viewBox="0 0 21.297 28.023">
  <path id="iconPint" d="M3.335,15.228c.035-.087.386-1.436.41-1.527a9.417,9.417,0,0,1-.69-5.714c.5-3.214,3.91-4.795,7.126-4.795V3.187c4.027,0,7.041,2.243,7.044,6.1,0,3.02-1.817,7.012-4.924,7.012h0a4.43,4.43,0,0,1-2.881-1,2.207,2.207,0,0,1-.3-2.022A26.72,26.72,0,0,0,10.448,8.02,1.987,1.987,0,0,0,8.367,5.835a2.95,2.95,0,0,0-2.7,2.028A5.454,5.454,0,0,0,5.7,11.841c.2.56-.884,4.214-1.231,5.4C3.6,20.2,2.423,23.938,2.676,26.02l.244,2,1.224-1.6c1.694-2.218,3.446-7.954,3.913-9.35,1.38,1.787,4.253,1.838,4.588,1.838,4.115,0,8.781-4.086,8.649-9.773C21.177,4.147,17.527,0,10.969,0V.007C4.731.007,1.09,3.337.2,7.544c-.816,3.9,1,6.87,3.136,7.684Zm0,0" transform="translate(0.001 -0.001)" fill="#616060"/>
</svg>
