<svg xmlns="http://www.w3.org/2000/svg" width="20" height="20" viewBox="0 0 38 28">
  <g id="iconCartao" transform="translate(-672 -257)">
    <g id="União_3" data-name="União 3" transform="translate(672 257)" fill="none">
      <path d="M7,28V20H0V0H31V10h7V28Z" stroke="none"/>
      <path d="M 35.99980163574219 25.99990081787109 L 35.99980163574219 11.99990081787109 L 30.99960136413574 11.99990081787109 L 28.99960136413574 11.99990081787109 L 28.99960136413574 9.999900817871094 L 28.99960136413574 2.000000476837158 L 2.000000715255737 2.000000476837158 L 2.000000715255737 17.99979972839355 L 7.000200748443604 17.99979972839355 L 9.000201225280762 17.99979972839355 L 9.000201225280762 19.99979972839355 L 9.000201225280762 25.99990081787109 L 35.99980163574219 25.99990081787109 M 37.99980163574219 27.99990081787109 L 7.000200748443604 27.99990081787109 L 7.000200748443604 19.99979972839355 L 8.178710686479462e-07 19.99979972839355 L 8.178710686479462e-07 4.089355343239731e-07 L 30.99960136413574 4.089355343239731e-07 L 30.99960136413574 9.999900817871094 L 37.99980163574219 9.999900817871094 L 37.99980163574219 27.99990081787109 Z" stroke="none" fill="#616060"/>
    </g>
    <g id="Retângulo_8" data-name="Retângulo 8" transform="translate(672 267)" fill="none" stroke="#616060" stroke-width="2">
      <rect width="31" height="2" stroke="none"/>
      <rect x="1" y="1" width="29" fill="none"/>
    </g>
    <g id="Retângulo_9" data-name="Retângulo 9" transform="translate(672 262)" fill="none" stroke="#616060" stroke-width="2">
      <rect width="31" height="7" stroke="none"/>
      <rect x="1" y="1" width="29" height="5" fill="none"/>
    </g>
    <g id="Elipse_7" data-name="Elipse 7" transform="translate(688 271)" fill="none" stroke="#616060" stroke-width="1">
      <circle cx="4.5" cy="4.5" r="4.5" stroke="none"/>
      <circle cx="4.5" cy="4.5" r="4" fill="none"/>
    </g>
    <g id="Elipse_8" data-name="Elipse 8" transform="translate(692 271)" fill="none" stroke="#616060" stroke-width="1">
      <circle cx="4.5" cy="4.5" r="4.5" stroke="none"/>
      <circle cx="4.5" cy="4.5" r="4" fill="none"/>
    </g>
    <path id="União_4" data-name="União 4" d="M1,0V0ZM0,0V0Z" transform="translate(679.5 268.5)" fill="none" stroke="#616060" stroke-width="1"/>
  </g>
</svg>
